<?xml version="1.0" encoding="UTF-8"?>
<!-- Generator: Adobe Illustrator 16.0.0, SVG Export Plug-In . SVG Version: 6.00 Build 0)  -->
<!DOCTYPE svg PUBLIC "-//W3C//DTD SVG 1.1//EN" "http://www.w3.org/Graphics/SVG/1.1/DTD/svg11.dtd">
<svg version="1.1" id="_x31_" xmlns="http://www.w3.org/2000/svg" xmlns:xlink="http://www.w3.org/1999/xlink" x="0px" y="0px" width="478.709px" height="85.579px" viewBox="0 0 478.709 85.579" enable-background="new 0 0 478.709 85.579" xml:space="preserve">
<g>
	<rect fill-rule="evenodd" clip-rule="evenodd" fill="#271D6C" width="41.898" height="41.898"/>
	<rect y="43.682" fill-rule="evenodd" clip-rule="evenodd" fill="#E5007D" width="41.898" height="41.897"/>
	<rect x="43.682" fill-rule="evenodd" clip-rule="evenodd" fill="#271D6C" width="41.898" height="41.898"/>
	<rect x="43.682" y="43.682" fill-rule="evenodd" clip-rule="evenodd" fill="#EDB3C4" width="41.898" height="41.897"/>
	<rect x="87.363" fill-rule="evenodd" clip-rule="evenodd" fill="#271D6C" width="41.898" height="41.898"/>
	<rect x="87.363" y="43.682" fill-rule="evenodd" clip-rule="evenodd" fill="#EB9400" width="41.898" height="41.897"/>
	<rect x="131.043" fill-rule="evenodd" clip-rule="evenodd" fill="#271D6C" width="41.898" height="41.898"/>
	<rect x="131.043" y="43.682" fill-rule="evenodd" clip-rule="evenodd" fill="#EB9400" width="41.898" height="41.897"/>
	<rect x="174.725" fill-rule="evenodd" clip-rule="evenodd" fill="#271D6C" width="41.898" height="41.898"/>
	<rect x="174.725" y="43.682" fill-rule="evenodd" clip-rule="evenodd" fill="#EB9400" width="41.898" height="41.897"/>
	<rect x="218.406" fill-rule="evenodd" clip-rule="evenodd" fill="#0098DA" width="41.899" height="41.898"/>
	<rect x="218.406" y="43.682" fill-rule="evenodd" clip-rule="evenodd" fill="#EB9400" width="41.899" height="41.897"/>
	<rect x="262.086" fill-rule="evenodd" clip-rule="evenodd" fill="#C41011" width="41.898" height="41.898"/>
	<rect x="262.086" y="43.682" fill-rule="evenodd" clip-rule="evenodd" fill="#EB9400" width="41.898" height="41.897"/>
	<rect x="305.768" fill-rule="evenodd" clip-rule="evenodd" fill="#C41011" width="41.898" height="41.898"/>
	<rect x="305.768" y="43.682" fill-rule="evenodd" clip-rule="evenodd" fill="#EB9400" width="41.898" height="41.897"/>
	<rect x="349.45" fill-rule="evenodd" clip-rule="evenodd" fill="#C41011" width="41.898" height="41.898"/>
	<rect x="349.45" y="43.682" fill-rule="evenodd" clip-rule="evenodd" fill="#EB9400" width="41.898" height="41.897"/>
	<rect x="393.131" fill-rule="evenodd" clip-rule="evenodd" fill="#C41011" width="41.896" height="41.898"/>
	<rect x="393.131" y="43.682" fill-rule="evenodd" clip-rule="evenodd" fill="#EB9400" width="41.896" height="41.897"/>
	<rect x="436.811" fill-rule="evenodd" clip-rule="evenodd" fill="#E5007D" width="41.898" height="41.898"/>
	<rect x="436.811" y="43.682" fill-rule="evenodd" clip-rule="evenodd" fill="#FBBE3C" width="41.898" height="41.897"/>
	<path fill-rule="evenodd" clip-rule="evenodd" fill="#FFFFFF" d="M18.669,25.488c0.135,0.978,0.404,1.71,0.8,2.19   c0.724,0.884,1.963,1.322,3.723,1.322c1.053,0,1.912-0.118,2.569-0.346c1.247-0.446,1.87-1.271,1.87-2.484   c0-0.708-0.312-1.255-0.927-1.635c-0.615-0.379-1.592-0.716-2.914-1.002l-2.266-0.514c-2.224-0.497-3.765-1.045-4.616-1.634   c-1.44-0.986-2.157-2.536-2.157-4.633c0-1.912,0.699-3.505,2.089-4.776c1.39-1.264,3.437-1.896,6.132-1.896   c2.257,0,4.187,0.599,5.778,1.786c1.592,1.196,2.417,2.932,2.494,5.205H26.95c-0.076-1.288-0.632-2.198-1.676-2.737   c-0.699-0.362-1.567-0.539-2.603-0.539c-1.154,0-2.072,0.228-2.754,0.69c-0.682,0.464-1.027,1.112-1.027,1.946   c0,0.767,0.336,1.339,1.01,1.718c0.438,0.245,1.365,0.539,2.789,0.885l3.689,0.885c1.609,0.387,2.831,0.901,3.656,1.55   c1.272,1.002,1.912,2.459,1.912,4.371c0,1.954-0.75,3.572-2.24,4.86c-1.491,1.289-3.605,1.938-6.334,1.938   c-2.788,0-4.978-0.64-6.57-1.912c-1.6-1.271-2.4-3.016-2.4-5.239H18.669L18.669,25.488z M23.007,10.049"/>
	<polygon fill-rule="evenodd" clip-rule="evenodd" fill="#FFFFFF" points="75.489,10.706 75.489,14.496 69.087,14.496    69.087,32.092 64.589,32.092 64.589,14.496 58.162,14.496 58.162,10.706  "/>
	<path fill-rule="evenodd" clip-rule="evenodd" fill="#FFFFFF" d="M111.429,32.092h-4.439V10.706h4.439V32.092L111.429,32.092z    M109.214,10.284"/>
	<polygon fill-rule="evenodd" clip-rule="evenodd" fill="#FFFFFF" points="117.922,54.387 117.922,58.177 111.521,58.177    111.521,75.773 107.022,75.773 107.022,58.177 100.596,58.177 100.596,54.387  "/>
	<path fill-rule="evenodd" clip-rule="evenodd" fill="#FFFFFF" d="M158.825,65.051c0-2.4-0.522-4.254-1.558-5.568   c-1.036-1.306-2.442-1.962-4.211-1.962s-3.184,0.648-4.237,1.954c-1.053,1.306-1.584,3.167-1.584,5.576s0.531,4.262,1.584,5.567   c1.053,1.306,2.468,1.963,4.237,1.963s3.175-0.657,4.211-1.963S158.825,67.46,158.825,65.051L158.825,65.051z M160.064,73.869   c-1.618,1.668-3.951,2.502-7.008,2.502s-5.399-0.834-7.008-2.502c-2.165-2.038-3.252-4.978-3.252-8.818   c0-3.917,1.087-6.856,3.252-8.819c1.608-1.668,3.95-2.502,7.008-2.502s5.391,0.834,7.008,2.502   c2.156,1.963,3.234,4.902,3.234,8.819C163.298,68.892,162.22,71.831,160.064,73.869L160.064,73.869z M153.056,53.729"/>
	<path fill-rule="evenodd" clip-rule="evenodd" fill="#FFFFFF" d="M201.656,61.058c-0.346-1.457-1.172-2.477-2.485-3.058   c-0.733-0.319-1.55-0.479-2.451-0.479c-1.727,0-3.142,0.648-4.245,1.945c-1.104,1.306-1.659,3.26-1.659,5.871   c0,2.637,0.598,4.498,1.802,5.585c1.196,1.095,2.561,1.643,4.086,1.643c1.499,0,2.729-0.43,3.689-1.298   c0.951-0.867,1.541-1.996,1.769-3.403h-4.944v-3.571h8.903v11.481h-2.956l-0.447-2.671c-0.867,1.02-1.643,1.736-2.324,2.148   c-1.18,0.725-2.628,1.087-4.355,1.087c-2.838,0-5.154-0.978-6.965-2.94c-1.887-1.979-2.831-4.675-2.831-8.103   c0-3.462,0.952-6.233,2.864-8.322c1.903-2.089,4.422-3.133,7.555-3.133c2.721,0,4.902,0.69,6.555,2.063   c1.65,1.372,2.594,3.091,2.838,5.154H201.656L201.656,61.058z M196.645,53.84"/>
	<polygon fill-rule="evenodd" clip-rule="evenodd" fill="#FFFFFF" points="248.403,58.177 237.09,58.177 237.09,62.717    247.477,62.717 247.477,66.432 237.09,66.432 237.09,71.933 248.926,71.933 248.926,75.773 232.719,75.773 232.719,54.387    248.403,54.387  "/>
	<polygon fill-rule="evenodd" clip-rule="evenodd" fill="#FFFFFF" points="292.647,54.387 292.647,58.177 286.245,58.177    286.245,75.773 281.747,75.773 281.747,58.177 275.321,58.177 275.321,54.387  "/>
	<polygon fill-rule="evenodd" clip-rule="evenodd" fill="#FFFFFF" points="319.09,75.773 319.09,54.387 323.52,54.387 323.52,62.54    331.875,62.54 331.875,54.387 336.315,54.387 336.315,75.773 331.875,75.773 331.875,66.229 323.52,66.229 323.52,75.773  "/>
	<polygon fill-rule="evenodd" clip-rule="evenodd" fill="#FFFFFF" points="379.448,58.177 368.135,58.177 368.135,62.717    378.52,62.717 378.52,66.432 368.135,66.432 368.135,71.933 379.969,71.933 379.969,75.773 363.764,75.773 363.764,54.387    379.448,54.387  "/>
	<path fill-rule="evenodd" clip-rule="evenodd" fill="#FFFFFF" d="M410.95,58.102v5.744h5.063c1.012,0,1.77-0.118,2.266-0.345   c0.893-0.413,1.34-1.213,1.34-2.409c0-1.298-0.43-2.165-1.297-2.611c-0.48-0.253-1.205-0.379-2.174-0.379H410.95L410.95,58.102z    M422.59,56.434c0.463,0.539,0.826,1.137,1.104,1.794c0.27,0.666,0.404,1.415,0.404,2.249c0,1.02-0.252,2.014-0.766,2.999   s-1.365,1.676-2.545,2.08c0.986,0.396,1.686,0.961,2.098,1.693c0.414,0.732,0.615,1.845,0.615,3.344v1.44   c0,0.978,0.043,1.643,0.117,1.988c0.119,0.547,0.389,0.951,0.818,1.213v0.539h-4.92c-0.143-0.472-0.236-0.851-0.295-1.146   c-0.117-0.599-0.176-1.213-0.186-1.845l-0.033-1.988c-0.018-1.364-2.123-3.411-3.438-3.411h-4.615v8.39h-4.363V54.387h10.486   c1.5,0.025,2.654,0.211,3.463,0.548C421.344,55.279,422.026,55.776,422.59,56.434z"/>
	<path fill-rule="evenodd" clip-rule="evenodd" fill="#FFFFFF" d="M445.362,55.09c-0.717,0.734-1.074,1.603-1.074,2.605   c0,1.042,0.365,1.929,1.096,2.658c0.723,0.728,1.598,1.093,2.623,1.093c1.023,0,1.896-0.365,2.619-1.1   c0.727-0.737,1.088-1.619,1.088-2.651c0-0.999-0.361-1.868-1.08-2.605c-0.727-0.748-1.604-1.123-2.627-1.123   C446.975,53.967,446.092,54.342,445.362,55.09L445.362,55.09z M451.157,60.928c-0.875,0.848-1.924,1.27-3.15,1.27   c-1.266,0-2.33-0.433-3.197-1.301c-0.869-0.868-1.301-1.936-1.301-3.201c0-1.315,0.467-2.406,1.402-3.279   c0.879-0.811,1.912-1.219,3.096-1.219c1.244,0,2.303,0.439,3.184,1.318c0.879,0.879,1.318,1.939,1.318,3.18   C452.508,58.976,452.057,60.053,451.157,60.928L451.157,60.928z M448.417,56.196c0.266,0.106,0.4,0.294,0.4,0.567   c0,0.272-0.084,0.468-0.254,0.592s-0.408,0.184-0.713,0.184h-0.508V56.09h0.316C447.985,56.09,448.237,56.125,448.417,56.196   L448.417,56.196z M446.036,60.202V55.21c0.309,0,0.771,0,1.389,0.004s0.961,0.008,1.027,0.011c0.395,0.028,0.725,0.113,0.982,0.256   c0.443,0.244,0.666,0.641,0.666,1.19c0,0.422-0.115,0.724-0.35,0.911s-0.521,0.298-0.865,0.333   c0.314,0.067,0.549,0.163,0.709,0.287c0.295,0.237,0.439,0.61,0.439,1.12v0.443c0,0.05,0.004,0.1,0.01,0.146   c0.004,0.049,0.016,0.099,0.033,0.148l0.043,0.143h-1.246c-0.039-0.16-0.066-0.391-0.078-0.691c-0.014-0.302-0.041-0.504-0.08-0.61   c-0.064-0.173-0.186-0.298-0.365-0.368c-0.1-0.039-0.248-0.067-0.447-0.078l-0.287-0.018h-0.273v1.766H446.036z"/>
	<path fill-rule="evenodd" clip-rule="evenodd" fill="#FFFFFF" d="M146.493,12.938c1.744-1.76,3.959-2.636,6.646-2.636   c3.597,0,6.233,1.179,7.893,3.537c0.918,1.322,1.415,2.653,1.482,3.993h-4.473c-0.286-1.028-0.657-1.803-1.112-2.325   c-0.817-0.927-2.021-1.39-3.613-1.39c-1.626,0-2.915,0.657-3.85,1.962c-0.935,1.314-1.407,3.168-1.407,5.568   s0.497,4.194,1.491,5.383c0.986,1.195,2.249,1.794,3.773,1.794c1.567,0,2.763-0.514,3.588-1.533   c0.455-0.548,0.834-1.382,1.129-2.485h4.43c-0.387,2.334-1.372,4.229-2.964,5.687c-1.592,1.465-3.639,2.198-6.124,2.198   c-3.074,0-5.492-0.985-7.252-2.965c-1.761-1.979-2.645-4.7-2.645-8.154C143.486,17.84,144.488,14.959,146.493,12.938   L146.493,12.938z M153.004,10.049"/>
	<polygon fill-rule="evenodd" clip-rule="evenodd" fill="#FFFFFF" points="189.417,10.706 193.814,10.706 193.814,19.517    202.068,10.706 207.848,10.706 199.087,19.517 208.293,32.092 202.549,32.092 195.945,22.751 193.814,24.94 193.814,32.092    189.417,32.092  "/>
</g>
</svg>